<svg version="1.0" xmlns="http://www.w3.org/2000/svg" width="1365.3" height="1365.3"
    viewBox="0 0 1024 1024">
    <path fill="currentColor" stroke="currentColor"
        d="M0 512v512h1024V0H0v512zm521-339v83c0 71 0 81-2 86-1 4-3 7-11 15-6 7-11 13-14 19l-7 10c-4 4-13 4-120 4-96 0-105-1-109-2-12-4-36-27-41-38l-3-5-3 2c-5 4-11 6-17 6-7 0-11-2-16-6-6-5-8-10-8-17 0-9 5-18 14-22 11-6 29 1 32 13l1 3 11 1 26 1h16v9h-53l-1 3-1 4 1 1 8 3c6 3 9 6 19 19l11 10 4 2h71l71-1 1-8a1473 1473 0 0 1 4-63c3-3 4-3 6 1l1 20v50l2 1h19v-44l1-14 5-3 5-2v63h12l14-1c4 0 11-6 19-17l11-15c9-10 8-3 8-91v-78l4-4c3-3 3-3 5-2l4 4zm-28-3c2 0 3 1 4 3v12l-65 1c-69 1-66 0-81 6a91 91 0 0 0-52 62l-3 9v51c0 35-1 50-2 51l-7 1h-6l-1-51c0-43 0-52 2-59 2-13 7-28 13-37 10-17 32-36 50-43 17-6 12-5 80-6a4736 4736 0 0 1 68 0zm51 1c2 2 2 3 2 88v86l-6 1h-7V173l2-2c3-3 6-3 9 0zm24 1c2 2 3 3 3 20l1 79c0 58 0 61 2 65 2 5 27 32 33 36 7 5 4 5 105 5h94l4-3a342 342 0 0 0 33-30c2-1 2-2 2-4v-3l-33-1h-33v28c-1 3-1 3-8 3h-6l-1-52c-1-47-1-52-3-61-7-31-27-53-59-65l-7-2-55-1h-55l-2-3c-3-3-3-8 0-11l2-3h48l57 1c35 4 71 32 83 65 6 16 6 20 7 57v35h63l1-4c1-4 4-8 8-11 8-8 26-6 33 4 11 15 1 35-18 37-6 0-7 0-11-2l-6-3-11 11c-14 16-22 23-30 26-6 3-8 3-22 4a3072 3072 0 0 1-185-2c-5-2-11-10-15-19-3-6-4-7-9-10-10-5-17-14-19-23l-1-83v-78l2-3c4-3 5-3 8 1zm-137 29c31 10 48 31 52 66 2 19 0 31-7 38-6 6-10 7-20 8-9 0-9 0-10-2 0-2 0-2-3 1-5 5-11 3-15-4-4-8-2-13 6-17 3-2 8 1 11 6l3 5 17-3c2-1 5-5 5-10v-4h-12c-9 0-12-1-14-2-4-2-4-5-1-8 2-2 3-2 15-2l12-1-1-8-2-7h-9c-8 0-10 0-11 2l-7 3a1097 1097 0 0 1-36 35c-15 16-18 20-18 24v3h-6c-8-1-13-4-19-12l-4-6h-6c-20 0-35-18-35-41 0-19 11-39 28-52 16-13 26-15 60-15 17 1 20 1 26 3zm206 16c7 4 11 10 11 20 0 13-8 22-20 22-13 0-24-12-21-25 2-14 18-23 30-17zm84-1 5 25 1 7 7 1c11 0 12 5 0 7l-35 2c-26 0-29 0-30-2v-36c1-4 3-5 28-4h24zm-84 56c8 3 13 12 13 20 0 10-8 20-20 22-7 1-17-5-21-12-1-4-2-14 0-18 5-12 18-17 29-12zm91 8v8l-24 1c-28-1-26-1-25 10v6h24l24-1 1 2v6l-1 3-27 1c-26 0-29 0-30-2-2-2-2-33 0-35l30-1c24 0 28 0 28 2zm-97 47 3 5h112c6 1 6 1 6 4 0 7-1 7-26 7a3434 3434 0 0 1-77 2h-12l-3 5c-6 9-15 7-18-5-2-5-1-13 2-16 5-4 10-5 13-1zm-74 33 8 4c2 2 2 2 1 5-3 5-4 5-10 4-10-4-16-4-22-1-7 3-13 9-16 15-8 16 5 38 24 40 5 0 13-3 19-8 8-8 12-20 9-28l-2-4 5-5 5-4 2 3c3 5 5 17 5 23-1 7-8 19-14 25-8 7-15 10-24 11-17 1-34-8-41-22-7-15-6-32 4-45 4-5 13-12 19-14 7-3 20-2 28 1zm25 6c0 2-3 5-14 15-8 7-11 12-13 19s-3 9-8 11c-8 4-18-3-18-12 0-6 5-9 10-5 2 1 0 3 24-20 10-9 11-10 15-10 3 0 4 0 4 2zm-382 14c9 2 15 9 16 16l1 4 9 1h261l2 5c4 12 14 26 24 36l8 8v205c-2 3-5 5-8 3-5-3-4 2-5-103v-99l-4-6c-13-19-21-28-29-32l-5-2h-81c-84 0-138-2-154-4-18-3-18-3-19 0l-5 7c-16 16-45 1-40-20 3-14 16-23 29-19zm671 0c10 2 18 12 18 22 0 20-24 31-39 18l-6-8-1-3-8 1-15 1c-19 3-42 3-118 4l-82 1-7 3c-9 4-18 13-25 23l-10 12-6 6v77a8896 8896 0 0 1-4 121c-3 2-3 2-5 1-5-1-5 0-5-102l1-101c0-4 0-5 6-8 8-5 16-13 24-26l8-12c3-2 13-7 20-8l114-1 111-1 3-7 6-8c4-3 12-6 15-6l5 1zm-577 46 2 71c0 78 0 76 7 93 6 13 10 19 18 28 10 9 20 15 35 19 13 4 23 5 83 5h57v3l1 8v5h-62c-66 0-71 0-87-5-14-4-32-15-41-24-10-11-20-30-24-46-2-7-2-10-3-49V425h2c3-1 11 0 12 1zm485 0 1 7c0 6 1 7 6 6 6-2 32 0 32 2 0 1-5 2-17 3-22 1-21 1-21 16v10l32 1h31l1-4c1-5 6-10 12-13 8-4 20-1 27 7 5 5 6 10 6 16-2 9-9 18-19 20-9 2-20-3-25-12l-2-4h-63v46c-1 49-1 52-7 67-8 23-29 45-50 54-20 9-22 9-83 10h-54l-3-3-1-88c0-92 0-96 5-99 4-1 5 0 6 8l1 86v80h49c47-1 50-1 57-3 31-8 52-30 61-59 2-8 2-13 3-33a1253 1253 0 0 0 1-105c0-19 0-18 8-18 4 0 5 0 6 2zm-368 5c5 4 6 4 13 4 8 0 8 0 9 3l1 13v11h-34c-33 0-34 0-35-2-2-3-1-23 1-24l10-1c7 0 8 0 13-3 4-3 6-4 11-4s7 1 11 4zm277 4c6 1 12 5 12 7 1 1-1 6-4 7l-5-2c-10-5-25-3-36 4-20 14-16 46 7 58 2 2 6 3 9 3 9 2 24-4 30-11 7-9 11-21 8-30-1-4-1-4 2-8l5-4c1 0 5 14 5 20 0 9-5 22-11 29-3 4-14 11-19 13-17 5-32 2-45-10a46 46 0 0 1 16-77c5-1 19-1 26 1zm37 0 2 2-11 11-15 17c-13 19-25 33-28 33-2 0-20-19-20-21l8-6c3 0 5 2 9 8l3 4 3-4c8-12 18-22 40-42 5-4 6-5 9-2zm-365 10v7l-9 2c-7 1-9 1-11 4l-3 3v67c0 75 0 71 6 77 7 6 5 6 58 6 48 1 50 1 53-1l6-6 2-3 1-70c1-67 0-70-1-73-2-3-3-4-14-4l-9-2-1-4c0-4 3-5 15-5 9 0 10 1 13 3l7 7 2 3 1 47c0 62-1 100-3 105-3 5-10 12-15 14-3 2-5 2-26 3l-50-1-29-1-8-4c-11-6-17-13-19-23l-1-71v-66l2-4c3-6 10-10 17-11 6-1 15 0 16 1zm-157 9c6 3 12 9 13 13l1 4h52v11l-26-1h-26l-3 5c-4 6-9 10-15 11-14 3-26-6-29-19-1-8 5-20 13-24 5-3 15-3 20 0zm343 100v102l-2 1c-4 3-8 2-9 0-2-3-2-29-2-139v-66h13v102zm-151-82 2 3c0 2-25 27-27 27s-4-3-4-5c1-3 25-27 26-27l3 2zm359 5c0 3 0 3-15 5-7 0-8 0-9-5-1-4 0-4 13-4h11v4zm-385 4 4 2-11 3-2 1c-1 2 0 12 1 14l6 2c5 1 5 1 9-1l5-6c2-6 4-3 3 6 0 7-2 8-14 8-11 0-11 0-14-3s-3-3-3-11v-10c2-5 8-7 16-5zm69 10h9l1 4c0 4 0 4-25 3l-20-1v-2l1-4h34zm-44 24 2 3c0 2-8 10-17 16l-7 7c-2 3-4 3-6 0v-5l7-7 11-10 7-6 3 2zm-193 7c6 1 12 7 14 12l2 4 26-1h27v5l-1 5-26 1h-26l-2 4-4 7c-4 3-12 7-17 7-8 0-18-6-22-14-2-5-2-14 1-19 2-4 9-11 12-11l4-1h12zm675 1c5 2 10 8 12 13 2 8 0 18-6 23-4 3-12 7-16 7-9 0-19-6-21-14l-2-4h-54l-1-5v-5h34l21-1 1-2c1-4 7-11 12-13 4-2 15-1 20 1zm-504 0v3l-5 2c-9 1-8 0-8 7l2 8c2 2 9 3 12 2s8-6 8-8l1-2c1 1 2 3 2 7 0 8-1 9-14 10l-12-1c-4-1-6-6-6-15s1-12 4-13c4-1 13-1 16 1zm75 10 1 4h-45v-8h22l23 1v3zm245 3 7 4v5c-3 3-4 4-10 1-6-2-16-3-24 0-7 2-14 8-18 15-3 6-3 7-3 17 0 8 0 10 2 15 3 6 9 13 16 16 6 3 21 4 28 0 7-3 14-10 18-17 2-5 2-6 2-18v-12l4-2 3-3 2 5c4 9 3 26-2 37l-8 10a45 45 0 0 1-39 14c-18-3-33-17-38-34-2-13-1-23 6-34 5-11 16-18 28-21 7-1 20-1 26 2zm29 1 2 3-8 9c-10 10-17 18-26 33l-13 16c-3 0-22-22-22-25l3-3c5-2 8-1 13 6 4 5 6 6 6 4 0-5 38-45 42-45l3 2zm-328 24c2 2 0 5-4 8l-12 10c-7 6-8 7-9 5-3-2-2-7 1-9l9-6c10-9 13-11 15-8zm-22 6 5 1-6 2c-11 2-10 1-10 10v7l4 1 9 1c6-1 6-1 6-5 1-5 4-9 6-7s1 16-1 18l-14 1c-12 0-12 0-15-2-2-3-2-4-2-14s0-11 2-12c3-2 7-2 16-1zm71 0c6 0 6 0 6 3 0 4-2 4-25 4h-19l-1-2c-1-5 1-6 18-6l21 1zm5 18c2 5 0 5-23 5h-21v-3c0-3 1-4 2-4l21-1h20l1 3zm-44 106c5 2 8 8 8 13 0 3-1 4-4 8l-8 4c-13 0-16-17-5-24 3-2 5-2 9-1zm223 3c4 4 4 5 4 10s0 6-4 10-5 4-9 4c-9 0-14-4-15-12-1-9 5-16 14-16 5 0 6 0 10 4zm-304 30 10 21 49 100-19-1c-3 0-4-2-9-11l-5-10h-57l-5 10-7 10c-1 2-3 2-11 2l-9-1 10-21 19-40c25-55 30-65 31-65l3 6zm153 2c8 2 16 6 21 10l4 4-4 5-6 7-1 2-6-3c-13-9-31-9-36-1-2 4-2 12 0 15 3 3 7 6 20 10 15 4 21 7 26 12 7 6 9 12 9 24 0 8 0 10-2 15-7 13-24 22-40 21l-13-3c-7-3-19-10-22-15l-3-3 5-5 6-7 1-3 4 5 12 8c6 3 8 3 14 3 11 1 18-5 19-13 0-5-2-11-7-14l-16-6c-17-6-22-8-28-14-5-6-7-13-7-22 0-16 11-29 27-33 6-1 17-1 23 1zm93 1c7 3 18 11 18 13l-5 8-5 7-3-2c-3-4-14-8-20-9s-14 1-18 5c-3 2-3 4-3 7 0 10 4 13 23 19 21 5 30 13 34 25 10 32-21 55-56 43-8-2-22-13-22-16l3-5 6-6 2-4 5 5c3 2 8 6 12 7 15 8 32 2 32-11 0-5-3-10-7-13l-19-7-19-8c-9-5-14-15-14-28 0-14 9-25 25-31 7-3 23-2 31 1zm127-1c7 2 22 11 22 13l-4 5-6 7-2 3-3-2c-18-14-41-9-39 7 1 8 5 11 28 18 12 3 19 7 24 13 5 5 7 12 7 22 0 13-7 24-21 30-8 4-18 6-27 4-12-2-26-9-32-17l-3-4 5-5 7-7c1-2 1-2 6 3 6 6 12 9 20 11 10 3 22-3 24-11 1-5 1-8-3-12-3-4-7-6-22-10-19-7-27-12-31-21-6-15-1-33 12-42 9-7 26-9 38-5zm99 0h8v19h-31v48c0 54 1 50-7 52-3 1-5 1-8-1-6-3-6-2-6-52l1-46-12-1c-15 0-15 0-15-11v-7a1971 1971 0 0 1 70-1zm-387 2 2 56-1 57c0 2-5 5-9 5-2 0-7-2-9-4s-2-113 0-115 15-1 17 1zm217 1c2 1 2 3 2 57v55l-3 2c-3 3-9 3-14 0l-3-2v-56l1-57c3-2 14-2 17 1z" />
    <path fill="currentColor" stroke="currentColor"
        d="M188 316c-3 1-8 8-9 11 0 5 1 9 5 13 3 4 4 4 9 4s5 0 10-5c4-4 5-5 5-8 0-8-6-15-13-16l-7 1zM857 320l-6 7c-1 4-1 4 2 9 4 6 7 8 12 8s9-2 13-7c2-4 3-8 0-13-2-5-6-8-12-8-5 0-6 1-9 4zM376 212c-10 1-20 6-29 15-4 4-9 9-10 12-6 9-9 24-6 27l4 1c2 1 1 1-1 1-3-1-3 0-4 2 0 5 2 12 6 16 5 6 10 8 21 9 9 0 10 1 10 3l5 7 5 5 3-2a595 595 0 0 0 55-62c3-4 8-6 10-3s17 3 18 0c1-2-6-11-13-18-7-5-17-11-24-13h-50zm34 9c3 2 6 6 8 12 1 3 1 4-1 8-2 5-5 7-11 8-4 0-6 0-9-2-5-2-6-2-11-1-6 1-6 1-8 6-6 11-16 10-22-2-3-7-2-13 3-18 5-6 15-3 18 4 1 2 2 2 7 2h5l2-6c3-10 10-14 18-11zm-53 43c4 7 2 14-5 14-9 0-11-13-3-18 4-2 5-1 8 3zm37 4c2 3-7 14-20 24-5 5-7 5-8 2-1-4 8-16 18-24 4-3 9-4 10-2zM621 230c-4 5-5 9-2 13 4 6 9 8 15 5 4-2 5-5 5-10 0-4 0-6-3-9-3-2-5-3-8-3s-4 1-7 4zM679 226l-1 11v11h20l21-1c1-1-1-20-2-21h-38zM623 284c-5 4-6 8-5 12 2 4 6 7 11 7 9 0 14-8 10-16-4-7-11-8-16-3zM190 389c-3 1-7 5-9 8-4 8 2 18 11 20 8 1 15-4 17-12 0-4-3-11-7-14-3-3-9-3-12-2zM859 390c-7 5-9 14-5 21 4 5 8 6 13 6 6-1 9-3 11-9 4-7 1-15-6-18-5-3-9-2-13 0zM860 462c-9 4-11 16-2 23 8 7 21 0 21-11 0-9-11-16-19-12zM390 444c-5 2-6 5-1 6h21c5 0 6-1 6-2-1-5-18-8-26-4zM187 463c-7 4-9 11-7 17 6 11 20 12 26 2 3-4 3-9 0-13-4-7-13-10-19-6zM187 532c-7 4-8 10-5 17 2 4 7 7 13 7 4 0 5 0 8-3 7-7 6-14 0-19-3-3-5-4-9-4l-7 2zM860 531c-5 2-8 7-8 13 0 3 1 5 4 8 6 6 15 6 20 0 4-5 5-9 2-14-3-8-11-11-18-7zM316 770l-10 20-6 13h7l20 1 12 1-1-4-19-38-3 7z" />
</svg>